<?xml version="1.0" encoding="UTF-8"?>
<!DOCTYPE svg PUBLIC "-//W3C//DTD SVG 1.1//EN" "http://www.w3.org/Graphics/SVG/1.1/DTD/svg11.dtd">
<svg xmlns="http://www.w3.org/2000/svg" version="1.1" width="517px" height="483px" style="shape-rendering:geometricPrecision; text-rendering:geometricPrecision; image-rendering:optimizeQuality; fill-rule:evenodd; clip-rule:evenodd" xmlns:xlink="http://www.w3.org/1999/xlink">
<g><path style="opacity:0.155" fill="#fde79e" d="M 300.5,100.5 C 292.496,99.1123 284.496,97.6123 276.5,96C 260.172,93.4038 244.172,94.2371 228.5,98.5C 225.833,98.5 223.167,98.5 220.5,98.5C 239.117,93.4389 258.117,92.2723 277.5,95C 285.546,95.7768 293.213,97.6101 300.5,100.5 Z"/></g>
<g><path style="opacity:1" fill="#fdbf0f" d="M 300.5,100.5 C 305.537,103.071 310.871,105.071 316.5,106.5C 320.608,109.057 324.941,111.39 329.5,113.5C 334.091,116.687 338.424,120.354 342.5,124.5C 344.707,125.635 347.04,126.301 349.5,126.5C 350.211,128.03 351.211,129.363 352.5,130.5C 351.448,130.351 350.448,130.517 349.5,131C 351.783,132.871 354.283,134.371 357,135.5C 359.131,140.89 361.798,145.223 365,148.5C 365.837,146.993 367.004,146.493 368.5,147C 369.257,148.512 370.257,149.846 371.5,151C 370.424,152.726 370.257,154.559 371,156.5C 374.668,156.87 376.835,159.204 377.5,163.5C 381.061,164.74 384.061,166.74 386.5,169.5C 386.407,174.648 388.407,178.648 392.5,181.5C 394.592,184.088 395.925,187.088 396.5,190.5C 397.057,195.165 398.39,199.498 400.5,203.5C 401.768,205.905 402.435,208.572 402.5,211.5C 404.165,225.438 404.831,239.438 404.5,253.5C 403.833,260.167 403.167,266.833 402.5,273.5C 401.625,271.432 400.459,269.432 399,267.5C 386.779,256.613 375.279,245.113 364.5,233C 359.746,229.579 355.579,225.413 352,220.5C 336.86,206.862 322.693,192.528 309.5,177.5C 310.675,177.719 311.675,177.386 312.5,176.5C 310.066,172.238 310.399,168.071 313.5,164C 313,163.5 312.5,163 312,162.5C 308.861,166.18 306.694,165.347 305.5,160C 307.511,157.246 309.844,156.912 312.5,159C 311.167,159.333 309.833,159.667 308.5,160C 308.833,160.333 309.167,160.667 309.5,161C 316.5,161.667 323.5,161.667 330.5,161C 328.665,160.072 328.332,158.906 329.5,157.5C 326.139,156.972 323.806,155.139 322.5,152C 320.559,150.097 318.226,149.264 315.5,149.5C 316.169,145.324 314.669,143.991 311,145.5C 309.561,147.275 308.561,149.275 308,151.5C 305.901,152.466 304.068,153.8 302.5,155.5C 300.883,155.331 299.216,154.997 297.5,154.5C 300.28,153.543 302.947,152.376 305.5,151C 299.633,150.255 298.966,147.922 303.5,144C 302.833,143.667 302.167,143.333 301.5,143C 304.07,140.933 306.07,138.433 307.5,135.5C 306.132,131.573 304.466,127.74 302.5,124C 301.551,123.383 300.718,123.549 300,124.5C 299.506,126.134 299.34,127.801 299.5,129.5C 297.641,129.461 296.308,130.294 295.5,132C 292.574,132.218 289.74,132.718 287,133.5C 286.508,134.549 286.674,135.549 287.5,136.5C 289.743,137.474 292.076,137.808 294.5,137.5C 294.286,139.144 294.62,140.644 295.5,142C 293.49,144.042 291.824,143.709 290.5,141C 291.5,140.667 292.5,140.333 293.5,140C 291.567,139.749 289.734,139.249 288,138.5C 287.586,138.957 287.086,139.291 286.5,139.5C 285.937,137.291 284.604,135.791 282.5,135C 284.677,133.814 285.677,131.981 285.5,129.5C 282.708,129.452 280.875,130.785 280,133.5C 277.821,132.604 275.988,131.271 274.5,129.5C 273.833,130.167 273.167,130.833 272.5,131.5C 270.629,130.233 268.796,130.233 267,131.5C 266.5,131 266,130.5 265.5,130C 266.833,129.667 268.167,129.333 269.5,129C 268.359,128.259 268.359,127.425 269.5,126.5C 270.991,125.756 272.491,125.09 274,124.5C 274.112,121.277 272.446,119.611 269,119.5C 267.113,119.969 265.613,120.969 264.5,122.5C 262.65,115.943 261.317,115.943 260.5,122.5C 256.029,122.672 255.696,123.506 259.5,125C 257.101,125.711 254.768,125.544 252.5,124.5C 251.614,123.675 251.281,122.675 251.5,121.5C 248.925,122.279 246.592,122.113 244.5,121C 246.48,119.175 248.813,118.341 251.5,118.5C 251.966,116.799 251.966,115.299 251.5,114C 247.577,113.207 243.744,113.374 240,114.5C 239.424,112.148 237.924,111.148 235.5,111.5C 230.907,112.099 226.073,112.766 221,113.5C 218.5,113.333 216,113.167 213.5,113C 214.833,112 214.833,111 213.5,110C 214.865,108.318 216.365,108.151 218,109.5C 219.706,108.692 220.539,107.359 220.5,105.5C 218.549,105.773 217.049,105.107 216,103.5C 214.612,104.554 213.112,104.72 211.5,104C 217.596,102.955 223.263,101.121 228.5,98.5C 244.172,94.2371 260.172,93.4038 276.5,96C 284.496,97.6123 292.496,99.1123 300.5,100.5 Z"/></g>
<g><path style="opacity:0.31" fill="#fde59a" d="M 300.5,100.5 C 306.285,101.536 311.618,103.536 316.5,106.5C 310.871,105.071 305.537,103.071 300.5,100.5 Z"/></g>
<g><path style="opacity:1" fill="#fcbf10" d="M 220.5,98.5 C 223.167,98.5 225.833,98.5 228.5,98.5C 223.263,101.121 217.596,102.955 211.5,104C 213.112,104.72 214.612,104.554 216,103.5C 217.049,105.107 218.549,105.773 220.5,105.5C 220.539,107.359 219.706,108.692 218,109.5C 216.365,108.151 214.865,108.318 213.5,110C 214.833,111 214.833,112 213.5,113C 216,113.167 218.5,113.333 221,113.5C 226.073,112.766 230.907,112.099 235.5,111.5C 237.924,111.148 239.424,112.148 240,114.5C 243.744,113.374 247.577,113.207 251.5,114C 251.966,115.299 251.966,116.799 251.5,118.5C 248.813,118.341 246.48,119.175 244.5,121C 246.592,122.113 248.925,122.279 251.5,121.5C 251.281,122.675 251.614,123.675 252.5,124.5C 254.768,125.544 257.101,125.711 259.5,125C 255.696,123.506 256.029,122.672 260.5,122.5C 261.317,115.943 262.65,115.943 264.5,122.5C 265.613,120.969 267.113,119.969 269,119.5C 272.446,119.611 274.112,121.277 274,124.5C 272.491,125.09 270.991,125.756 269.5,126.5C 268.359,127.425 268.359,128.259 269.5,129C 268.167,129.333 266.833,129.667 265.5,130C 266,130.5 266.5,131 267,131.5C 268.796,130.233 270.629,130.233 272.5,131.5C 273.167,130.833 273.833,130.167 274.5,129.5C 275.988,131.271 277.821,132.604 280,133.5C 280.875,130.785 282.708,129.452 285.5,129.5C 285.677,131.981 284.677,133.814 282.5,135C 284.604,135.791 285.937,137.291 286.5,139.5C 287.086,139.291 287.586,138.957 288,138.5C 289.734,139.249 291.567,139.749 293.5,140C 292.5,140.333 291.5,140.667 290.5,141C 291.824,143.709 293.49,144.042 295.5,142C 294.62,140.644 294.286,139.144 294.5,137.5C 292.076,137.808 289.743,137.474 287.5,136.5C 286.674,135.549 286.508,134.549 287,133.5C 289.74,132.718 292.574,132.218 295.5,132C 296.308,130.294 297.641,129.461 299.5,129.5C 299.34,127.801 299.506,126.134 300,124.5C 300.718,123.549 301.551,123.383 302.5,124C 304.466,127.74 306.132,131.573 307.5,135.5C 306.07,138.433 304.07,140.933 301.5,143C 302.167,143.333 302.833,143.667 303.5,144C 298.966,147.922 299.633,150.255 305.5,151C 302.947,152.376 300.28,153.543 297.5,154.5C 299.216,154.997 300.883,155.331 302.5,155.5C 304.068,153.8 305.901,152.466 308,151.5C 308.561,149.275 309.561,147.275 311,145.5C 314.669,143.991 316.169,145.324 315.5,149.5C 318.226,149.264 320.559,150.097 322.5,152C 323.806,155.139 326.139,156.972 329.5,157.5C 328.332,158.906 328.665,160.072 330.5,161C 323.5,161.667 316.5,161.667 309.5,161C 309.167,160.667 308.833,160.333 308.5,160C 309.833,159.667 311.167,159.333 312.5,159C 309.844,156.912 307.511,157.246 305.5,160C 306.694,165.347 308.861,166.18 312,162.5C 312.5,163 313,163.5 313.5,164C 310.399,168.071 310.066,172.238 312.5,176.5C 311.675,177.386 310.675,177.719 309.5,177.5C 307.958,176.699 306.292,176.366 304.5,176.5C 304.912,174.027 303.912,172.694 301.5,172.5C 274.817,137.218 240.15,126.052 197.5,139C 157.321,157.175 139.154,188.342 143,232.5C 147.554,257.97 160.387,277.97 181.5,292.5C 191.449,304.615 202.616,315.615 215,325.5C 217.344,328.93 219.844,332.263 222.5,335.5C 221.5,335.5 220.5,335.5 219.5,335.5C 219.78,332.612 218.447,331.112 215.5,331C 213.743,328.154 211.743,325.488 209.5,323C 205.431,319.73 201.097,316.73 196.5,314C 196.957,313.586 197.291,313.086 197.5,312.5C 194.686,309.326 191.353,306.66 187.5,304.5C 185.846,302.176 184.179,299.842 182.5,297.5C 181.522,297.977 180.689,298.643 180,299.5C 178.688,296.762 176.522,295.428 173.5,295.5C 173.5,296.5 173.5,297.5 173.5,298.5C 171.088,298.244 169.421,299.244 168.5,301.5C 167.692,301.192 167.025,300.692 166.5,300C 170.5,298.667 170.5,297.333 166.5,296C 166.833,295.667 167.167,295.333 167.5,295C 165.956,294.71 164.623,294.044 163.5,293C 166.041,288.79 164.708,286.123 159.5,285C 161.107,283.951 161.773,282.451 161.5,280.5C 159.408,280.561 157.908,281.561 157,283.5C 155.978,282.646 155.145,281.646 154.5,280.5C 156.005,279.158 156.672,277.492 156.5,275.5C 155.5,275.5 154.5,275.5 153.5,275.5C 153.509,277.308 153.009,278.975 152,280.5C 151.586,280.043 151.086,279.709 150.5,279.5C 151.054,276.28 151.054,272.947 150.5,269.5C 149.086,268.376 147.586,267.376 146,266.5C 145.692,267.308 145.192,267.975 144.5,268.5C 142.22,262.795 140.72,257.128 140,251.5C 138.815,253.377 137.815,255.377 137,257.5C 136.654,255.782 136.154,254.115 135.5,252.5C 136.167,251.833 136.833,251.167 137.5,250.5C 136.277,249.386 134.944,249.219 133.5,250C 134.054,252.612 133.387,255.112 131.5,257.5C 135.255,259.71 135.255,262.044 131.5,264.5C 130.749,263.624 130.249,262.624 130,261.5C 130.028,265.723 128.695,269.389 126,272.5C 125.808,270.423 125.308,268.423 124.5,266.5C 123.554,268.075 123.554,269.742 124.5,271.5C 124.182,272.647 123.516,273.481 122.5,274C 123.833,274.333 125.167,274.667 126.5,275C 124.715,276.163 122.715,276.83 120.5,277C 122.256,277.202 123.922,277.702 125.5,278.5C 125.291,279.086 124.957,279.586 124.5,280C 125.784,280.684 126.951,280.517 128,279.5C 129.779,281.017 129.279,281.851 126.5,282C 127.158,283.905 128.325,285.405 130,286.5C 131.043,282.774 131.543,283.107 131.5,287.5C 130.167,287.5 128.833,287.5 127.5,287.5C 127.579,288.93 127.246,290.264 126.5,291.5C 128.086,293.67 129.42,296.004 130.5,298.5C 131.95,297.345 132.95,295.845 133.5,294C 135.905,293.719 135.905,294.385 133.5,296C 134.624,296.249 135.624,296.749 136.5,297.5C 132.383,298.078 132.717,299.245 137.5,301C 136.802,301.971 136.802,303.137 137.5,304.5C 137.167,305.167 136.833,305.833 136.5,306.5C 134.949,301.55 132.949,301.55 130.5,306.5C 130.808,307.308 131.308,307.975 132,308.5C 132.423,307.044 133.256,306.544 134.5,307C 136.037,308.11 136.703,309.61 136.5,311.5C 137.552,311.351 138.552,311.517 139.5,312C 138.891,314.058 137.891,314.891 136.5,314.5C 138.206,316.612 139.539,318.945 140.5,321.5C 142.085,323.087 143.752,323.92 145.5,324C 144.833,324.333 144.167,324.667 143.5,325C 147.5,326.333 147.5,327.667 143.5,329C 144.833,330.667 146.167,332.333 147.5,334C 146.5,334.833 145.5,335.667 144.5,336.5C 145.274,337.711 146.107,337.711 147,336.5C 147.41,337.901 147.91,339.234 148.5,340.5C 148.44,341.043 148.107,341.376 147.5,341.5C 146.274,339.722 144.607,338.722 142.5,338.5C 137.093,332.753 132.427,326.42 128.5,319.5C 128.913,316.68 127.913,314.68 125.5,313.5C 125.799,311.396 125.466,309.396 124.5,307.5C 122.381,302.428 119.715,297.762 116.5,293.5C 114.595,289.784 113.261,285.784 112.5,281.5C 112.706,278.505 112.04,275.838 110.5,273.5C 110.167,268.833 109.833,264.167 109.5,259.5C 109.5,246.833 109.5,234.167 109.5,221.5C 111.478,214.923 113.144,208.256 114.5,201.5C 115.461,198.574 116.127,195.574 116.5,192.5C 121.09,183.652 125.424,174.652 129.5,165.5C 131.763,160.635 134.763,156.302 138.5,152.5C 146.833,143.5 155.5,134.833 164.5,126.5C 168.732,124.6 172.399,121.933 175.5,118.5C 176.873,118.657 178.207,118.49 179.5,118C 180.989,116.532 182.323,115.032 183.5,113.5C 186.406,112.892 188.74,111.559 190.5,109.5C 200.699,106.213 210.699,102.546 220.5,98.5 Z"/></g>
<g><path style="opacity:0.659" fill="#f9df8e" d="M 220.5,98.5 C 210.699,102.546 200.699,106.213 190.5,109.5C 199.839,104.273 209.839,100.606 220.5,98.5 Z"/></g>
<g><path style="opacity:0.184" fill="#fde49e" d="M 316.5,106.5 C 321.764,107.799 326.431,110.132 330.5,113.5C 330.167,113.5 329.833,113.5 329.5,113.5C 324.941,111.39 320.608,109.057 316.5,106.5 Z"/></g>
<g><path style="opacity:0.157" fill="#fce797" d="M 190.5,109.5 C 188.74,111.559 186.406,112.892 183.5,113.5C 185.336,111.412 187.669,110.079 190.5,109.5 Z"/></g>
<g><path style="opacity:1" fill="#fbce5d" d="M 329.5,113.5 C 329.833,113.5 330.167,113.5 330.5,113.5C 337.662,116.669 343.995,121.002 349.5,126.5C 347.04,126.301 344.707,125.635 342.5,124.5C 338.424,120.354 334.091,116.687 329.5,113.5 Z"/></g>
<g><path style="opacity:1" fill="#f7cf5e" d="M 183.5,113.5 C 182.323,115.032 180.989,116.532 179.5,118C 178.207,118.49 176.873,118.657 175.5,118.5C 177.629,116.05 180.296,114.383 183.5,113.5 Z"/></g>
<g><path style="opacity:0.388" fill="#f7d981" d="M 175.5,118.5 C 172.399,121.933 168.732,124.6 164.5,126.5C 167.601,123.067 171.268,120.4 175.5,118.5 Z"/></g>
<g><path style="opacity:0.361" fill="#fde291" d="M 349.5,126.5 C 351.754,127.124 353.421,128.457 354.5,130.5C 353.833,130.5 353.167,130.5 352.5,130.5C 351.211,129.363 350.211,128.03 349.5,126.5 Z"/></g>
<g><path style="opacity:0.995" fill="#fefefd" d="M 301.5,172.5 C 320.116,204.138 320.116,235.804 301.5,267.5C 321.366,280.531 341.366,293.364 361.5,306C 364.423,308.416 366.757,311.25 368.5,314.5C 369.881,319.507 369.714,324.507 368,329.5C 363.427,338.754 356.094,344.087 346,345.5C 342.498,345.496 339.331,344.496 336.5,342.5C 319.503,323.337 302.003,304.67 284,286.5C 251.218,310.674 217.052,312.674 181.5,292.5C 160.387,277.97 147.554,257.97 143,232.5C 139.154,188.342 157.321,157.175 197.5,139C 240.15,126.052 274.817,137.218 301.5,172.5 Z"/></g>
<g><path style="opacity:0.447" fill="#f9de87" d="M 164.5,126.5 C 155.5,134.833 146.833,143.5 138.5,152.5C 145.5,142.167 154.167,133.5 164.5,126.5 Z"/></g>
<g><path style="opacity:1" fill="#fbc235" d="M 352.5,130.5 C 353.167,130.5 353.833,130.5 354.5,130.5C 368.184,141.169 378.851,154.169 386.5,169.5C 384.061,166.74 381.061,164.74 377.5,163.5C 376.835,159.204 374.668,156.87 371,156.5C 370.257,154.559 370.424,152.726 371.5,151C 370.257,149.846 369.257,148.512 368.5,147C 367.004,146.493 365.837,146.993 365,148.5C 361.798,145.223 359.131,140.89 357,135.5C 354.283,134.371 351.783,132.871 349.5,131C 350.448,130.517 351.448,130.351 352.5,130.5 Z"/></g>
<g><path style="opacity:1" fill="#f49821" d="M 278.5,174.5 C 277.265,174.279 276.265,173.612 275.5,172.5C 273.425,173.762 271.425,173.595 269.5,172C 268.092,167.982 265.425,166.649 261.5,168C 261.833,167.667 262.167,167.333 262.5,167C 261.54,165.581 260.707,164.081 260,162.5C 259.439,163.022 258.772,163.355 258,163.5C 257.749,162.014 256.415,161.014 254,160.5C 252.413,161.727 251.079,161.394 250,159.5C 248.612,160.554 247.112,160.72 245.5,160C 246.167,159.333 246.833,158.667 247.5,158C 245.782,157.654 244.115,157.154 242.5,156.5C 239.198,156.849 236.031,156.849 233,156.5C 232.692,157.308 232.192,157.975 231.5,158.5C 229.632,158.054 227.799,157.721 226,157.5C 223.569,160.518 220.569,161.185 217,159.5C 215.933,160.191 214.766,160.691 213.5,161C 216.723,162.126 219.889,162.293 223,161.5C 223.75,162.126 224.584,162.626 225.5,163C 224.663,164.011 224.33,165.178 224.5,166.5C 221.09,166.218 217.757,165.551 214.5,164.5C 210.894,165.774 208.227,168.107 206.5,171.5C 207.24,174.179 206.906,176.846 205.5,179.5C 203.932,177.456 202.098,177.122 200,178.5C 196.814,175.667 193.314,173.334 189.5,171.5C 186.955,174.317 183.622,176.983 179.5,179.5C 178.749,180.376 178.249,181.376 178,182.5C 176.774,180.452 175.274,180.119 173.5,181.5C 183.689,166.051 198.023,156.551 216.5,153C 240.15,149.866 260.65,156.366 278,172.5C 278.464,173.094 278.631,173.761 278.5,174.5 Z"/></g>
<g><path style="opacity:1" fill="#f9cb57" d="M 386.5,169.5 C 389.535,172.902 391.535,176.902 392.5,181.5C 388.407,178.648 386.407,174.648 386.5,169.5 Z"/></g>
<g><path style="opacity:0.678" fill="#fcde87" d="M 129.5,165.5 C 125.424,174.652 121.09,183.652 116.5,192.5C 118.98,182.542 123.313,173.542 129.5,165.5 Z"/></g>
<g><path style="opacity:0.424" fill="#fadd8e" d="M 396.5,190.5 C 398.61,194.502 399.943,198.835 400.5,203.5C 398.39,199.498 397.057,195.165 396.5,190.5 Z"/></g>
<g><path style="opacity:0.333" fill="#fee992" d="M 116.5,192.5 C 116.127,195.574 115.461,198.574 114.5,201.5C 113.833,202.5 113.167,203.5 112.5,204.5C 112.861,200.085 114.194,196.085 116.5,192.5 Z"/></g>
<g><path style="opacity:1" fill="#fa991d" d="M 301.5,172.5 C 303.912,172.694 304.912,174.027 304.5,176.5C 306.292,176.366 307.958,176.699 309.5,177.5C 322.693,192.528 336.86,206.862 352,220.5C 355.579,225.413 359.746,229.579 364.5,233C 375.279,245.113 386.779,256.613 399,267.5C 400.459,269.432 401.625,271.432 402.5,273.5C 402.768,275.099 402.434,276.432 401.5,277.5C 400.076,279.515 399.41,281.848 399.5,284.5C 399.59,287.152 398.924,289.485 397.5,291.5C 395.085,294.34 393.752,297.673 393.5,301.5C 392.5,301.5 391.5,301.5 390.5,301.5C 389.749,306.796 387.749,311.463 384.5,315.5C 383.571,316.689 383.238,318.022 383.5,319.5C 382.5,319.5 381.5,319.5 380.5,319.5C 380.5,321.167 380.5,322.833 380.5,324.5C 378.861,324.074 377.528,324.074 376.5,324.5C 375.288,325.23 374.288,326.23 373.5,327.5C 372.522,327.023 371.689,326.357 371,325.5C 371.094,321.367 370.26,317.701 368.5,314.5C 366.757,311.25 364.423,308.416 361.5,306C 341.366,293.364 321.366,280.531 301.5,267.5C 320.116,235.804 320.116,204.138 301.5,172.5 Z"/></g>
<g><path style="opacity:0.784" fill="#fcdb6e" d="M 114.5,201.5 C 113.144,208.256 111.478,214.923 109.5,221.5C 109.167,221.5 108.833,221.5 108.5,221.5C 109.087,215.544 110.421,209.878 112.5,204.5C 113.167,203.5 113.833,202.5 114.5,201.5 Z"/></g>
<g><path style="opacity:0.102" fill="#fef0a4" d="M 108.5,223.5 C 108.134,229.827 107.8,236.16 107.5,242.5C 107.402,248.401 108.069,254.067 109.5,259.5C 109.833,264.167 110.167,268.833 110.5,273.5C 106.117,256.968 105.45,240.301 108.5,223.5 Z"/></g>
<g><path style="opacity:1" fill="#f8cc3a" d="M 108.5,221.5 C 108.833,221.5 109.167,221.5 109.5,221.5C 109.5,234.167 109.5,246.833 109.5,259.5C 108.069,254.067 107.402,248.401 107.5,242.5C 107.8,236.16 108.134,229.827 108.5,223.5C 108.5,222.833 108.5,222.167 108.5,221.5 Z"/></g>
<g><path style="opacity:0.706" fill="#f7cf64" d="M 402.5,211.5 C 404.415,217.899 405.415,224.565 405.5,231.5C 405.825,239.019 405.492,246.352 404.5,253.5C 404.831,239.438 404.165,225.438 402.5,211.5 Z"/></g>
<g><path style="opacity:0.141" fill="#fce09e" d="M 405.5,231.5 C 407.274,245.674 406.274,259.674 402.5,273.5C 403.167,266.833 403.833,260.167 404.5,253.5C 405.492,246.352 405.825,239.019 405.5,231.5 Z"/></g>
<g><path style="opacity:1" fill="#f89a1f" d="M 278.5,174.5 C 293.018,189.893 298.851,208.226 296,229.5C 289.289,262.211 269.456,281.377 236.5,287C 201.332,288.475 177.165,272.975 164,240.5C 159.124,223.828 160.124,207.495 167,191.5C 168.444,187.589 170.611,184.256 173.5,181.5C 175.274,180.119 176.774,180.452 178,182.5C 178.249,181.376 178.749,180.376 179.5,179.5C 183.622,176.983 186.955,174.317 189.5,171.5C 193.314,173.334 196.814,175.667 200,178.5C 202.098,177.122 203.932,177.456 205.5,179.5C 206.906,176.846 207.24,174.179 206.5,171.5C 208.227,168.107 210.894,165.774 214.5,164.5C 217.757,165.551 221.09,166.218 224.5,166.5C 224.33,165.178 224.663,164.011 225.5,163C 224.584,162.626 223.75,162.126 223,161.5C 219.889,162.293 216.723,162.126 213.5,161C 214.766,160.691 215.933,160.191 217,159.5C 220.569,161.185 223.569,160.518 226,157.5C 227.799,157.721 229.632,158.054 231.5,158.5C 232.192,157.975 232.692,157.308 233,156.5C 236.031,156.849 239.198,156.849 242.5,156.5C 244.115,157.154 245.782,157.654 247.5,158C 246.833,158.667 246.167,159.333 245.5,160C 247.112,160.72 248.612,160.554 250,159.5C 251.079,161.394 252.413,161.727 254,160.5C 256.415,161.014 257.749,162.014 258,163.5C 258.772,163.355 259.439,163.022 260,162.5C 260.707,164.081 261.54,165.581 262.5,167C 262.167,167.333 261.833,167.667 261.5,168C 265.425,166.649 268.092,167.982 269.5,172C 271.425,173.595 273.425,173.762 275.5,172.5C 276.265,173.612 277.265,174.279 278.5,174.5 Z"/></g>
<g><path style="opacity:1" fill="#ea9f3a" d="M 277.5,214.5 C 279.376,211.079 280.376,207.412 280.5,203.5C 279.325,203.281 278.325,203.614 277.5,204.5C 267.904,221.371 257.571,237.705 246.5,253.5C 246.591,251.302 245.925,250.969 244.5,252.5C 255.061,235.055 265.895,217.721 277,200.5C 280.004,192.841 277.504,188.174 269.5,186.5C 271.915,186.627 274.249,186.793 276.5,187C 275.01,184.8 275.343,182.966 277.5,181.5C 278.645,183.635 278.645,185.801 277.5,188C 278.835,193.963 280.168,199.963 281.5,206C 281.369,208.253 280.869,210.419 280,212.5C 279.583,213.756 278.75,214.423 277.5,214.5 Z"/></g>
<g><path style="opacity:0.995" fill="#fefefd" d="M 269.5,186.5 C 277.504,188.174 280.004,192.841 277,200.5C 265.895,217.721 255.061,235.055 244.5,252.5C 242.66,254.168 240.66,255.668 238.5,257C 237.167,257.667 235.833,257.667 234.5,257C 217.717,250.109 201.05,242.942 184.5,235.5C 183.5,235.833 182.833,236.5 182.5,237.5C 183.373,239.413 184.373,241.247 185.5,243C 201.051,249.942 216.718,256.609 232.5,263C 239.678,263.67 244.345,260.504 246.5,253.5C 257.571,237.705 267.904,221.371 277.5,204.5C 278.325,203.614 279.325,203.281 280.5,203.5C 280.376,207.412 279.376,211.079 277.5,214.5C 266.775,230.934 256.275,247.6 246,264.5C 240.937,270.109 235.104,270.942 228.5,267C 213.048,260.186 197.714,253.186 182.5,246C 181.299,245.097 180.465,243.931 180,242.5C 179.333,236.833 179.333,231.167 180,225.5C 193.069,207.095 206.902,189.262 221.5,172C 225.114,170.247 228.781,170.247 232.5,172C 244.855,176.846 257.188,181.68 269.5,186.5 Z"/></g>
<g><path style="opacity:1" fill="#ec9e2b" d="M 244.5,252.5 C 245.925,250.969 246.591,251.302 246.5,253.5C 244.345,260.504 239.678,263.67 232.5,263C 216.718,256.609 201.051,249.942 185.5,243C 184.373,241.247 183.373,239.413 182.5,237.5C 182.833,236.5 183.5,235.833 184.5,235.5C 201.05,242.942 217.717,250.109 234.5,257C 235.833,257.667 237.167,257.667 238.5,257C 240.66,255.668 242.66,254.168 244.5,252.5 Z"/></g>
<g><path style="opacity:0.047" fill="#feea9b" d="M 110.5,273.5 C 112.04,275.838 112.706,278.505 112.5,281.5C 111.232,279.095 110.565,276.428 110.5,273.5 Z"/></g>
<g><path style="opacity:0.063" fill="#f6ca90" d="M 401.5,277.5 C 401.59,280.152 400.924,282.485 399.5,284.5C 399.41,281.848 400.076,279.515 401.5,277.5 Z"/></g>
<g><path style="opacity:0.133" fill="#f7c688" d="M 397.5,291.5 C 396.737,295.137 395.403,298.47 393.5,301.5C 393.752,297.673 395.085,294.34 397.5,291.5 Z"/></g>
<g><path style="opacity:1" fill="#fb9a1e" d="M 336.5,342.5 C 336.574,344.411 337.574,345.578 339.5,346C 342.833,346.333 346.167,346.667 349.5,347C 348.692,347.308 348.025,347.808 347.5,348.5C 350.153,348.497 351.819,350.163 352.5,353.5C 351.369,354.604 350.535,354.271 350,352.5C 349,353.833 348,353.833 347,352.5C 347.487,354.044 347.987,355.71 348.5,357.5C 347.5,357.5 346.5,357.5 345.5,357.5C 345.5,359.167 345.5,360.833 345.5,362.5C 345.158,363.338 344.492,363.672 343.5,363.5C 341.973,363.427 340.973,364.094 340.5,365.5C 338.596,365.738 337.262,366.738 336.5,368.5C 334.473,368.338 332.473,368.505 330.5,369C 326.04,373.251 320.707,376.084 314.5,377.5C 312.445,378.187 310.779,379.354 309.5,381C 305.5,382 301.5,383 297.5,384C 296.619,384.708 295.953,385.542 295.5,386.5C 295.167,386.5 294.833,386.5 294.5,386.5C 288.1,386.965 281.766,387.632 275.5,388.5C 275.011,385.676 273.344,384.343 270.5,384.5C 255.307,367.638 239.307,351.304 222.5,335.5C 219.844,332.263 217.344,328.93 215,325.5C 202.616,315.615 191.449,304.615 181.5,292.5C 217.052,312.674 251.218,310.674 284,286.5C 302.003,304.67 319.503,323.337 336.5,342.5 Z"/></g>
<g><path style="opacity:1" fill="#f9d056" d="M 116.5,293.5 C 119.715,297.762 122.381,302.428 124.5,307.5C 125.466,309.396 125.799,311.396 125.5,313.5C 121.435,307.365 118.435,300.699 116.5,293.5 Z"/></g>
<g><path style="opacity:1" fill="#febf0d" d="M 222.5,335.5 C 239.307,351.304 255.307,367.638 270.5,384.5C 273.344,384.343 275.011,385.676 275.5,388.5C 275.5,388.833 275.5,389.167 275.5,389.5C 274.833,389.5 274.167,389.5 273.5,389.5C 261.495,389.667 249.495,389.5 237.5,389C 228.836,387.993 220.503,385.993 212.5,383C 213.5,382.667 214.5,382.333 215.5,382C 213.833,381.667 212.167,381.333 210.5,381C 211.451,380.282 211.617,379.449 211,378.5C 206.461,380.162 202.294,379.495 198.5,376.5C 195.904,377.213 193.237,377.213 190.5,376.5C 183.967,373.619 177.967,369.953 172.5,365.5C 171.315,364.143 170.315,362.643 169.5,361C 169.645,360.228 169.978,359.561 170.5,359C 167.611,356.444 164.278,354.777 160.5,354C 159.809,352.933 159.309,351.766 159,350.5C 154.636,347.967 151.136,344.633 148.5,340.5C 147.91,339.234 147.41,337.901 147,336.5C 146.107,337.711 145.274,337.711 144.5,336.5C 145.5,335.667 146.5,334.833 147.5,334C 146.167,332.333 144.833,330.667 143.5,329C 147.5,327.667 147.5,326.333 143.5,325C 144.167,324.667 144.833,324.333 145.5,324C 143.752,323.92 142.085,323.087 140.5,321.5C 139.539,318.945 138.206,316.612 136.5,314.5C 137.891,314.891 138.891,314.058 139.5,312C 138.552,311.517 137.552,311.351 136.5,311.5C 136.703,309.61 136.037,308.11 134.5,307C 133.256,306.544 132.423,307.044 132,308.5C 131.308,307.975 130.808,307.308 130.5,306.5C 132.949,301.55 134.949,301.55 136.5,306.5C 136.833,305.833 137.167,305.167 137.5,304.5C 136.802,303.137 136.802,301.971 137.5,301C 132.717,299.245 132.383,298.078 136.5,297.5C 135.624,296.749 134.624,296.249 133.5,296C 135.905,294.385 135.905,293.719 133.5,294C 132.95,295.845 131.95,297.345 130.5,298.5C 129.42,296.004 128.086,293.67 126.5,291.5C 127.246,290.264 127.579,288.93 127.5,287.5C 128.833,287.5 130.167,287.5 131.5,287.5C 131.543,283.107 131.043,282.774 130,286.5C 128.325,285.405 127.158,283.905 126.5,282C 129.279,281.851 129.779,281.017 128,279.5C 126.951,280.517 125.784,280.684 124.5,280C 124.957,279.586 125.291,279.086 125.5,278.5C 123.922,277.702 122.256,277.202 120.5,277C 122.715,276.83 124.715,276.163 126.5,275C 125.167,274.667 123.833,274.333 122.5,274C 123.516,273.481 124.182,272.647 124.5,271.5C 123.554,269.742 123.554,268.075 124.5,266.5C 125.308,268.423 125.808,270.423 126,272.5C 128.695,269.389 130.028,265.723 130,261.5C 130.249,262.624 130.749,263.624 131.5,264.5C 135.255,262.044 135.255,259.71 131.5,257.5C 133.387,255.112 134.054,252.612 133.5,250C 134.944,249.219 136.277,249.386 137.5,250.5C 136.833,251.167 136.167,251.833 135.5,252.5C 136.154,254.115 136.654,255.782 137,257.5C 137.815,255.377 138.815,253.377 140,251.5C 140.72,257.128 142.22,262.795 144.5,268.5C 145.192,267.975 145.692,267.308 146,266.5C 147.586,267.376 149.086,268.376 150.5,269.5C 151.054,272.947 151.054,276.28 150.5,279.5C 151.086,279.709 151.586,280.043 152,280.5C 153.009,278.975 153.509,277.308 153.5,275.5C 154.5,275.5 155.5,275.5 156.5,275.5C 156.672,277.492 156.005,279.158 154.5,280.5C 155.145,281.646 155.978,282.646 157,283.5C 157.908,281.561 159.408,280.561 161.5,280.5C 161.773,282.451 161.107,283.951 159.5,285C 164.708,286.123 166.041,288.79 163.5,293C 164.623,294.044 165.956,294.71 167.5,295C 167.167,295.333 166.833,295.667 166.5,296C 170.5,297.333 170.5,298.667 166.5,300C 167.025,300.692 167.692,301.192 168.5,301.5C 169.421,299.244 171.088,298.244 173.5,298.5C 173.5,297.5 173.5,296.5 173.5,295.5C 176.522,295.428 178.688,296.762 180,299.5C 180.689,298.643 181.522,297.977 182.5,297.5C 184.179,299.842 185.846,302.176 187.5,304.5C 191.353,306.66 194.686,309.326 197.5,312.5C 197.291,313.086 196.957,313.586 196.5,314C 201.097,316.73 205.431,319.73 209.5,323C 211.743,325.488 213.743,328.154 215.5,331C 218.447,331.112 219.78,332.612 219.5,335.5C 220.5,335.5 221.5,335.5 222.5,335.5 Z"/></g>
<g><path style="opacity:0.976" fill="#f8d669" d="M 125.5,313.5 C 127.913,314.68 128.913,316.68 128.5,319.5C 126.992,317.819 125.992,315.819 125.5,313.5 Z"/></g>
<g><path style="opacity:0.969" fill="#f2af56" d="M 393.5,301.5 C 389.491,312.492 383.825,322.492 376.5,331.5C 377.686,329.126 377.686,326.792 376.5,324.5C 377.528,324.074 378.861,324.074 380.5,324.5C 380.5,322.833 380.5,321.167 380.5,319.5C 381.5,319.5 382.5,319.5 383.5,319.5C 383.238,318.022 383.571,316.689 384.5,315.5C 387.749,311.463 389.749,306.796 390.5,301.5C 391.5,301.5 392.5,301.5 393.5,301.5 Z"/></g>
<g><path style="opacity:1" fill="#f2b359" d="M 375.5,332.5 C 371.945,338.727 367.278,344.06 361.5,348.5C 361.5,346.5 361.5,344.5 361.5,342.5C 362.833,342.5 364.167,342.5 365.5,342.5C 365.5,341.167 365.5,339.833 365.5,338.5C 366.873,338.657 368.207,338.49 369.5,338C 368.692,337.692 368.025,337.192 367.5,336.5C 370.66,336.017 373.326,334.684 375.5,332.5 Z"/></g>
<g><path style="opacity:1" fill="#f29e2f" d="M 368.5,314.5 C 370.26,317.701 371.094,321.367 371,325.5C 371.689,326.357 372.522,327.023 373.5,327.5C 374.288,326.23 375.288,325.23 376.5,324.5C 377.686,326.792 377.686,329.126 376.5,331.5C 376.5,332.167 376.167,332.5 375.5,332.5C 373.326,334.684 370.66,336.017 367.5,336.5C 368.025,337.192 368.692,337.692 369.5,338C 368.207,338.49 366.873,338.657 365.5,338.5C 365.5,339.833 365.5,341.167 365.5,342.5C 364.167,342.5 362.833,342.5 361.5,342.5C 361.5,344.5 361.5,346.5 361.5,348.5C 356.956,354.1 351.623,358.766 345.5,362.5C 345.5,360.833 345.5,359.167 345.5,357.5C 346.5,357.5 347.5,357.5 348.5,357.5C 347.987,355.71 347.487,354.044 347,352.5C 348,353.833 349,353.833 350,352.5C 350.535,354.271 351.369,354.604 352.5,353.5C 351.819,350.163 350.153,348.497 347.5,348.5C 348.025,347.808 348.692,347.308 349.5,347C 346.167,346.667 342.833,346.333 339.5,346C 337.574,345.578 336.574,344.411 336.5,342.5C 339.331,344.496 342.498,345.496 346,345.5C 356.094,344.087 363.427,338.754 368,329.5C 369.714,324.507 369.881,319.507 368.5,314.5 Z"/></g>
<g><path style="opacity:1" fill="#f8c336" d="M 142.5,338.5 C 144.607,338.722 146.274,339.722 147.5,341.5C 148.107,341.376 148.44,341.043 148.5,340.5C 151.136,344.633 154.636,347.967 159,350.5C 159.309,351.766 159.809,352.933 160.5,354C 164.278,354.777 167.611,356.444 170.5,359C 169.978,359.561 169.645,360.228 169.5,361C 170.315,362.643 171.315,364.143 172.5,365.5C 166.381,361.261 160.381,356.761 154.5,352C 149.921,347.926 145.921,343.426 142.5,338.5 Z"/></g>
<g><path style="opacity:0.059" fill="#f8cc8b" d="M 343.5,363.5 C 343.027,364.906 342.027,365.573 340.5,365.5C 340.973,364.094 341.973,363.427 343.5,363.5 Z"/></g>
<g><path style="opacity:0.051" fill="#fcd492" d="M 340.5,365.5 C 339.738,367.262 338.404,368.262 336.5,368.5C 337.262,366.738 338.596,365.738 340.5,365.5 Z"/></g>
<g><path style="opacity:1" fill="#f5b155" d="M 336.5,368.5 C 323.928,376.809 310.261,382.809 295.5,386.5C 295.953,385.542 296.619,384.708 297.5,384C 301.5,383 305.5,382 309.5,381C 310.779,379.354 312.445,378.187 314.5,377.5C 320.707,376.084 326.04,373.251 330.5,369C 332.473,368.505 334.473,368.338 336.5,368.5 Z"/></g>
<g><path style="opacity:1" fill="#f8c234" d="M 190.5,376.5 C 193.237,377.213 195.904,377.213 198.5,376.5C 202.294,379.495 206.461,380.162 211,378.5C 211.617,379.449 211.451,380.282 210.5,381C 212.167,381.333 213.833,381.667 215.5,382C 214.5,382.333 213.5,382.667 212.5,383C 220.503,385.993 228.836,387.993 237.5,389C 249.495,389.5 261.495,389.667 273.5,389.5C 262.346,390.495 251.012,390.828 239.5,390.5C 233.165,390.762 227.165,389.762 221.5,387.5C 219.485,386.076 217.152,385.41 214.5,385.5C 205.989,383.666 197.989,380.666 190.5,376.5 Z"/></g>
<g><path style="opacity:0.235" fill="#fbe180" d="M 214.5,385.5 C 217.152,385.41 219.485,386.076 221.5,387.5C 218.848,387.59 216.515,386.924 214.5,385.5 Z"/></g>
<g><path style="opacity:0.984" fill="#eea648" d="M 294.5,386.5 C 290.111,388.246 285.444,389.246 280.5,389.5C 278.833,389.5 277.167,389.5 275.5,389.5C 275.5,389.167 275.5,388.833 275.5,388.5C 281.766,387.632 288.1,386.965 294.5,386.5 Z"/></g>
<g><path style="opacity:0.637" fill="#fad669" d="M 273.5,389.5 C 274.167,389.5 274.833,389.5 275.5,389.5C 277.167,389.5 278.833,389.5 280.5,389.5C 266.883,392.697 253.216,393.03 239.5,390.5C 251.012,390.828 262.346,390.495 273.5,389.5 Z"/></g>
</svg>
